<mxfile host="app.diagrams.net" modified="2023-11-30T04:03:48.219Z" agent="Mozilla/5.0 (Windows NT 10.0; Win64; x64) AppleWebKit/537.36 (KHTML, like Gecko) Chrome/119.0.0.0 Safari/537.36" etag="tb2re_PMq5ffiKDyKSNn" version="22.1.4" type="github">
  <diagram id="C5RBs43oDa-KdzZeNtuy" name="Page-1">
    <mxGraphModel dx="989" dy="571" grid="1" gridSize="10" guides="1" tooltips="1" connect="1" arrows="1" fold="1" page="1" pageScale="1" pageWidth="827" pageHeight="1169" math="0" shadow="0">
      <root>
        <mxCell id="WIyWlLk6GJQsqaUBKTNV-0" />
        <mxCell id="WIyWlLk6GJQsqaUBKTNV-1" parent="WIyWlLk6GJQsqaUBKTNV-0" />
        <mxCell id="7khW1xBxU2SpraM2lM1S-4" style="edgeStyle=orthogonalEdgeStyle;rounded=0;orthogonalLoop=1;jettySize=auto;html=1;" edge="1" parent="WIyWlLk6GJQsqaUBKTNV-1" source="7khW1xBxU2SpraM2lM1S-0" target="7khW1xBxU2SpraM2lM1S-3">
          <mxGeometry relative="1" as="geometry" />
        </mxCell>
        <mxCell id="7khW1xBxU2SpraM2lM1S-0" value="检验申请单" style="rounded=1;whiteSpace=wrap;html=1;fontSize=12;glass=0;strokeWidth=1;shadow=0;" vertex="1" parent="WIyWlLk6GJQsqaUBKTNV-1">
          <mxGeometry x="229" y="220" width="80" height="30" as="geometry" />
        </mxCell>
        <mxCell id="7khW1xBxU2SpraM2lM1S-2" style="edgeStyle=orthogonalEdgeStyle;rounded=0;orthogonalLoop=1;jettySize=auto;html=1;entryX=0.5;entryY=0;entryDx=0;entryDy=0;" edge="1" parent="WIyWlLk6GJQsqaUBKTNV-1" source="7khW1xBxU2SpraM2lM1S-1" target="7khW1xBxU2SpraM2lM1S-0">
          <mxGeometry relative="1" as="geometry" />
        </mxCell>
        <mxCell id="7khW1xBxU2SpraM2lM1S-1" value="整单/工序&lt;br&gt;外协单" style="rounded=1;whiteSpace=wrap;html=1;fontSize=12;glass=0;strokeWidth=1;shadow=0;" vertex="1" parent="WIyWlLk6GJQsqaUBKTNV-1">
          <mxGeometry x="229" y="160" width="80" height="30" as="geometry" />
        </mxCell>
        <mxCell id="7khW1xBxU2SpraM2lM1S-10" value="" style="edgeStyle=orthogonalEdgeStyle;rounded=0;orthogonalLoop=1;jettySize=auto;html=1;" edge="1" parent="WIyWlLk6GJQsqaUBKTNV-1" source="7khW1xBxU2SpraM2lM1S-3" target="7khW1xBxU2SpraM2lM1S-9">
          <mxGeometry relative="1" as="geometry" />
        </mxCell>
        <mxCell id="7khW1xBxU2SpraM2lM1S-3" value="外协检验单" style="rounded=1;whiteSpace=wrap;html=1;fontSize=12;glass=0;strokeWidth=1;shadow=0;" vertex="1" parent="WIyWlLk6GJQsqaUBKTNV-1">
          <mxGeometry x="229" y="280" width="80" height="30" as="geometry" />
        </mxCell>
        <mxCell id="7khW1xBxU2SpraM2lM1S-11" style="edgeStyle=orthogonalEdgeStyle;rounded=0;orthogonalLoop=1;jettySize=auto;html=1;exitX=0;exitY=0.5;exitDx=0;exitDy=0;" edge="1" parent="WIyWlLk6GJQsqaUBKTNV-1" source="7khW1xBxU2SpraM2lM1S-9" target="7khW1xBxU2SpraM2lM1S-1">
          <mxGeometry relative="1" as="geometry">
            <mxPoint x="209.0044827586207" y="355" as="sourcePoint" />
            <mxPoint x="169" y="170" as="targetPoint" />
            <Array as="points">
              <mxPoint x="170" y="355" />
              <mxPoint x="170" y="175" />
            </Array>
          </mxGeometry>
        </mxCell>
        <mxCell id="7khW1xBxU2SpraM2lM1S-13" value="生成外协单" style="edgeLabel;html=1;align=center;verticalAlign=middle;resizable=0;points=[];" vertex="1" connectable="0" parent="7khW1xBxU2SpraM2lM1S-11">
          <mxGeometry x="0.0634" relative="1" as="geometry">
            <mxPoint as="offset" />
          </mxGeometry>
        </mxCell>
        <mxCell id="7khW1xBxU2SpraM2lM1S-26" value="拒收、报废" style="edgeLabel;html=1;align=center;verticalAlign=middle;resizable=0;points=[];" vertex="1" connectable="0" parent="7khW1xBxU2SpraM2lM1S-11">
          <mxGeometry x="-0.2676" y="-1" relative="1" as="geometry">
            <mxPoint as="offset" />
          </mxGeometry>
        </mxCell>
        <mxCell id="7khW1xBxU2SpraM2lM1S-24" style="edgeStyle=orthogonalEdgeStyle;rounded=0;orthogonalLoop=1;jettySize=auto;html=1;entryX=0;entryY=0.5;entryDx=0;entryDy=0;" edge="1" parent="WIyWlLk6GJQsqaUBKTNV-1" source="7khW1xBxU2SpraM2lM1S-9" target="7khW1xBxU2SpraM2lM1S-23">
          <mxGeometry relative="1" as="geometry" />
        </mxCell>
        <mxCell id="7khW1xBxU2SpraM2lM1S-25" value="让步接收" style="edgeLabel;html=1;align=center;verticalAlign=middle;resizable=0;points=[];" vertex="1" connectable="0" parent="7khW1xBxU2SpraM2lM1S-24">
          <mxGeometry x="-0.1349" relative="1" as="geometry">
            <mxPoint as="offset" />
          </mxGeometry>
        </mxCell>
        <mxCell id="7khW1xBxU2SpraM2lM1S-9" value="外协检验处理" style="rounded=1;whiteSpace=wrap;html=1;fontSize=12;glass=0;strokeWidth=1;shadow=0;" vertex="1" parent="WIyWlLk6GJQsqaUBKTNV-1">
          <mxGeometry x="229" y="340" width="81" height="30" as="geometry" />
        </mxCell>
        <mxCell id="7khW1xBxU2SpraM2lM1S-18" value="&lt;h1&gt;笔记：&lt;/h1&gt;&lt;div&gt;1.工序外协单：有产出物的才需要质检&lt;/div&gt;" style="text;html=1;strokeColor=none;fillColor=none;spacing=5;spacingTop=-20;whiteSpace=wrap;overflow=hidden;rounded=0;" vertex="1" parent="WIyWlLk6GJQsqaUBKTNV-1">
          <mxGeometry x="480" y="10" width="340" height="120" as="geometry" />
        </mxCell>
        <mxCell id="7khW1xBxU2SpraM2lM1S-20" value="质检信息（产品/物料是否需要质检）" style="rounded=1;whiteSpace=wrap;html=1;fontSize=12;glass=0;strokeWidth=1;shadow=0;" vertex="1" parent="WIyWlLk6GJQsqaUBKTNV-1">
          <mxGeometry x="270" y="20" width="100" height="60" as="geometry" />
        </mxCell>
        <mxCell id="7khW1xBxU2SpraM2lM1S-22" value="检验方法（基础信息）" style="rounded=1;whiteSpace=wrap;html=1;fontSize=12;glass=0;strokeWidth=1;shadow=0;" vertex="1" parent="WIyWlLk6GJQsqaUBKTNV-1">
          <mxGeometry x="160" y="30" width="90" height="30" as="geometry" />
        </mxCell>
        <mxCell id="7khW1xBxU2SpraM2lM1S-23" value="成品入库" style="rounded=1;whiteSpace=wrap;html=1;fontSize=12;glass=0;strokeWidth=1;shadow=0;" vertex="1" parent="WIyWlLk6GJQsqaUBKTNV-1">
          <mxGeometry x="414" y="340" width="80" height="30" as="geometry" />
        </mxCell>
      </root>
    </mxGraphModel>
  </diagram>
</mxfile>
